<svg id="Layer_1" data-name="Layer 1" xmlns="http://www.w3.org/2000/svg" viewBox="0 0 109.83 113.19"><defs><style>.cls-1{font-size:17px;stroke-miterlimit:10;font-family:Nunito-Bold, Nunito;font-weight:700;letter-spacing:0.2em;}.cls-1,.cls-4,.cls-5{fill:#fff;stroke:#fff;}.cls-2{letter-spacing:0.19em;}.cls-3{letter-spacing:0.11em;}.cls-4{font-size:6px;font-family:Poppins-Light, Poppins;font-weight:300;letter-spacing:0.2em;}.cls-5{stroke-linecap:round;stroke-linejoin:round;stroke-width:2px;}</style></defs><text class="cls-1" transform="translate(0.5 96.98)">CR<tspan class="cls-2" x="30.14" y="0">E</tspan><tspan class="cls-3" x="43.35" y="0">A</tspan><tspan x="57.88" y="0">TIVE</tspan></text><text class="cls-4" transform="translate(2.33 109.31)">DESIGN AND DIGITAL MEDIA</text><path class="cls-5" d="M1508,1006.26l-1.37-3.88c-1-2.73-.74-3.74.62-6.29l3.36-6.32a4.59,4.59,0,0,0,.07-4.16l-13.25-27v29.12" transform="translate(-1441.37 -943.45)"/><path class="cls-5" d="M1484.44,1006.26l1.22-3.43c1.06-3,.81-4.34-.69-7.16l-3.14-5.9a4.59,4.59,0,0,1-.07-4.16l13.25-27v29.12" transform="translate(-1441.37 -943.45)"/><rect class="cls-5" x="1481.16" y="1006.26" width="29.76" height="6.28" transform="translate(1550.71 1075.35) rotate(180)"/><path class="cls-5" d="M1497.33,988a4.91,4.91,0,0,1,.57.25A3.9,3.9,0,1,1,1495,988" transform="translate(-1441.37 -943.45)"/><line class="cls-5" x1="31.48" y1="16.04" x2="36.43" y2="18.3"/><line class="cls-5" x1="38.92" y1="5.54" x2="42.17" y2="9.9"/><line class="cls-5" x1="71.01" y1="5.54" x2="67.76" y2="9.9"/><line class="cls-5" x1="77.62" y1="16.04" x2="72.68" y2="18.3"/><line class="cls-5" x1="55.1" y1="5.94" x2="55.1" y2="1"/></svg>